<?xml version="1.0" encoding="UTF-8"?>
<svg width="1156px" height="377px" viewBox="0 0 1156 377" version="1.1" xmlns="http://www.w3.org/2000/svg" xmlns:xlink="http://www.w3.org/1999/xlink">
    <!-- Generator: Sketch 48.2 (47327) - http://www.bohemiancoding.com/sketch -->
    <title>Artboard naming</title>
    <desc>Created with Sketch.</desc>
    <defs></defs>
    <g id="Symbols" stroke="none" stroke-width="1" fill="none" fill-rule="evenodd">
        <g id="Artboard-naming">
            <path d="M311.22,366 L311.22,332.16 L332.82,332.16 L332.82,338.832 L320.388,338.832 L320.388,346.752 L331.428,346.752 L331.428,353.424 L320.388,353.424 L320.388,366 L311.22,366 Z M344.964,366 L336.708,366 L336.708,331.344 L344.964,329.952 L344.964,366 Z M353.892,337.536 C351.06,337.536 349.476,336.144 349.476,333.456 C349.476,330.768 351.06,329.424 353.892,329.424 C356.724,329.424 358.26,330.768 358.26,333.456 C358.26,336.144 356.724,337.536 353.892,337.536 Z M349.764,366 L349.764,339.6 L358.02,339.6 L358.02,366 L349.764,366 Z M373.14,356.688 C372.18,356.688 371.22,356.64 370.356,356.496 C369.588,356.88 369.06,357.456 369.06,358.272 C369.06,359.232 369.78,359.424 371.028,359.472 L378.804,359.808 C384.084,360.048 387.3,362.112 387.3,367.296 C387.3,372.96 382.356,376.656 373.188,376.656 C364.692,376.656 360.852,374.4 360.852,370.176 C360.852,368.016 362.052,366.384 364.74,364.944 C363.108,363.936 362.34,362.4 362.34,360.72 C362.34,358.224 363.828,356.304 366.228,355.152 C363.444,353.664 361.812,351.168 361.812,348 C361.812,342.768 366.276,339.024 373.14,339.024 C375.396,339.024 377.46,339.456 379.188,340.176 L387.156,339.264 L387.156,345.024 L383.7,345.024 C384.18,346.032 384.516,347.232 384.516,348.48 C384.516,353.136 380.292,356.688 373.14,356.688 Z M373.188,352.032 C375.444,352.032 377.124,350.544 377.124,348.048 C377.124,345.504 375.444,344.016 373.188,344.016 C370.932,344.016 369.252,345.504 369.252,348.048 C369.252,350.544 370.932,352.032 373.188,352.032 Z M367.956,368.64 C367.956,370.464 369.492,371.376 373.188,371.376 C377.364,371.376 379.38,369.984 379.38,368.16 C379.38,366.912 378.708,366.576 376.836,366.48 L369.348,366.192 C369.204,366.192 369.06,366.192 368.916,366.144 C368.244,366.96 367.956,367.776 367.956,368.64 Z M390.036,366 L390.036,331.344 L398.292,329.952 L398.292,342.816 C400.068,340.8 402.516,338.976 406.308,338.976 C411.3,338.976 414.612,341.76 414.612,348.24 L414.612,366 L406.308,366 L406.308,349.584 C406.308,346.608 404.772,345.504 402.564,345.504 C400.884,345.504 399.588,346.08 398.292,347.088 L398.292,366 L390.036,366 Z M430.404,366.528 C425.556,366.528 421.524,365.04 421.524,359.52 L421.524,345.456 L417.828,345.456 L417.828,339.6 L421.524,339.6 L421.524,335.376 L429.78,334.08 L429.78,339.6 L435.732,339.6 L435.732,345.456 L429.78,345.456 L429.78,357.936 C429.78,359.712 430.788,360.336 432.948,360.336 C433.956,360.336 434.916,360.24 435.54,360.096 L435.828,360.24 L435.828,366 C434.484,366.384 432.564,366.528 430.404,366.528 Z M463.236,366.624 C454.116,366.624 448.644,361.632 448.644,352.752 C448.644,343.728 454.644,338.976 463.092,338.976 C465.684,338.976 467.748,339.264 469.284,339.696 L469.284,345.792 L468.948,345.936 C467.412,345.36 466.068,345.12 464.052,345.12 C460.02,345.12 457.14,347.52 457.14,352.752 C457.14,358.032 459.828,360.576 464.244,360.576 C466.404,360.576 468.036,360.192 469.476,359.52 L469.86,359.664 L469.86,365.424 C468.372,366.192 466.116,366.624 463.236,366.624 Z M480.9,366.624 C476.004,366.624 472.308,363.984 472.308,358.752 C472.308,353.232 476.196,351.216 482.676,350.352 L487.572,349.728 C487.572,346.368 486.084,345.312 482.58,345.312 C479.22,345.312 476.82,346.08 474.708,346.896 L474.372,346.8 L474.372,340.608 C476.58,339.696 479.844,338.976 483.876,338.976 C491.652,338.976 495.78,341.952 495.78,349.728 L495.78,366 L488.676,366 L488.148,363.072 C486.804,364.944 484.692,366.624 480.9,366.624 Z M480.276,358.224 C480.276,360 481.284,361.2 483.588,361.2 C485.412,361.2 486.708,360.432 487.572,359.28 L487.572,354.576 L484.452,355.008 C481.524,355.44 480.276,356.304 480.276,358.224 Z M500.34,366 L500.34,339.6 L507.588,339.6 L508.164,344.112 C509.604,341.664 512.388,339.168 516.18,339.168 C516.996,339.168 517.86,339.216 518.34,339.36 L518.34,347.088 L518.052,347.28 C517.428,347.184 516.564,347.088 515.7,347.088 C512.628,347.088 510.276,347.664 508.596,349.296 L508.596,366 L500.34,366 Z M539.22,366 L538.404,362.688 C536.724,365.184 534.228,366.624 530.724,366.624 C524.484,366.624 520.164,362.064 520.164,352.992 C520.164,343.728 524.82,338.976 531.108,338.976 C534.084,338.976 536.148,340.08 537.684,341.808 L537.684,331.344 L545.94,329.952 L545.94,366 L539.22,366 Z M528.564,352.992 C528.564,358.032 530.436,360.24 533.364,360.24 C535.284,360.24 536.58,359.616 537.684,358.56 L537.684,346.704 C536.532,345.648 535.284,345.072 533.46,345.072 C530.292,345.072 528.564,347.808 528.564,352.992 Z M558.708,366.576 C554.628,366.576 551.844,365.952 549.54,364.896 L549.54,358.752 L549.828,358.608 C552.084,359.904 555.156,360.672 558.084,360.672 C560.676,360.672 561.876,359.808 561.876,358.416 C561.876,357.168 561.156,356.784 558.804,356.208 L556.452,355.632 C552.276,354.624 549.444,352.224 549.444,347.568 C549.444,342.336 553.332,338.928 559.764,338.928 C563.124,338.928 565.764,339.36 567.876,340.032 L567.876,345.984 L567.588,346.128 C565.668,345.36 562.98,344.736 560.004,344.736 C557.508,344.736 556.74,345.504 556.74,346.752 C556.74,347.952 557.46,348.48 559.236,348.912 L561.588,349.488 C566.964,350.832 569.556,352.608 569.556,357.456 C569.556,363.216 565.428,366.576 558.708,366.576 Z M582.612,353.952 L582.612,347.424 L595.86,347.424 L595.86,353.952 L582.612,353.952 Z M617.94,366 L608.292,339.984 L608.292,339.6 L616.98,339.6 L622.596,357.072 L628.116,339.6 L635.844,339.6 L635.844,339.936 L626.436,366 L617.94,366 Z M637.62,366 L637.62,360.384 L647.268,350.832 C650.436,347.76 651.732,345.12 651.732,342.48 C651.732,339.984 650.1,338.16 646.212,338.16 C643.14,338.16 640.74,338.832 638.34,340.032 L637.956,339.84 L637.956,333.456 C640.452,332.208 643.62,331.488 648.132,331.488 C656.052,331.488 660.708,335.136 660.708,341.808 C660.708,346.512 658.164,349.92 653.844,354.192 L648.18,359.76 L661.38,359.76 L661.38,366 L637.62,366 Z M669.588,366.528 C666.468,366.528 664.884,364.8 664.884,361.92 C664.884,359.04 666.468,357.312 669.588,357.312 C672.708,357.312 674.244,359.04 674.244,361.92 C674.244,364.8 672.708,366.528 669.588,366.528 Z M690.948,366.624 C681.828,366.624 676.356,361.632 676.356,352.752 C676.356,343.728 682.356,338.976 690.804,338.976 C693.396,338.976 695.46,339.264 696.996,339.696 L696.996,345.792 L696.66,345.936 C695.124,345.36 693.78,345.12 691.764,345.12 C687.732,345.12 684.852,347.52 684.852,352.752 C684.852,358.032 687.54,360.576 691.956,360.576 C694.116,360.576 695.748,360.192 697.188,359.52 L697.572,359.664 L697.572,365.424 C696.084,366.192 693.828,366.624 690.948,366.624 Z M709.956,366.624 C704.724,366.624 701.076,363.648 701.076,357.36 L701.076,339.6 L709.332,339.6 L709.332,356.016 C709.332,358.992 710.868,360.096 713.172,360.096 C714.852,360.096 716.292,359.664 717.588,358.656 L717.588,339.6 L725.844,339.6 L725.844,366 L718.596,366 L718.068,362.784 C716.244,364.848 713.748,366.624 709.956,366.624 Z M730.548,366 L730.548,339.6 L737.796,339.6 L738.372,344.112 C739.812,341.664 742.596,339.168 746.388,339.168 C747.204,339.168 748.068,339.216 748.548,339.36 L748.548,347.088 L748.26,347.28 C747.636,347.184 746.772,347.088 745.908,347.088 C742.836,347.088 740.484,347.664 738.804,349.296 L738.804,366 L730.548,366 Z M751.812,366 L751.812,339.6 L759.06,339.6 L759.636,344.112 C761.076,341.664 763.86,339.168 767.652,339.168 C768.468,339.168 769.332,339.216 769.812,339.36 L769.812,347.088 L769.524,347.28 C768.9,347.184 768.036,347.088 767.172,347.088 C764.1,347.088 761.748,347.664 760.068,349.296 L760.068,366 L751.812,366 Z M786.42,366.624 C776.1,366.624 771.588,361.296 771.588,352.56 C771.588,344.592 776.676,338.976 784.404,338.976 C792.036,338.976 796.836,343.824 795.924,355.056 L779.7,355.056 C780.276,358.848 782.388,360.432 786.948,360.432 C790.308,360.432 792.804,360 795.06,359.088 L795.396,359.232 L795.396,365.28 C793.524,366.096 790.404,366.624 786.42,366.624 Z M784.452,344.544 C781.764,344.544 780.18,346.176 779.7,349.872 L788.388,349.872 C788.244,346.368 787.14,344.544 784.452,344.544 Z M799.524,366 L799.524,339.6 L806.772,339.6 L807.3,343.056 C809.124,340.992 811.524,338.976 815.604,338.976 C820.5,338.976 824.1,341.76 824.1,348.24 L824.1,366 L815.796,366 L815.796,349.584 C815.796,346.608 814.26,345.504 812.052,345.504 C810.372,345.504 809.028,346.032 807.78,347.04 L807.78,366 L799.524,366 Z M839.892,366.528 C835.044,366.528 831.012,365.04 831.012,359.52 L831.012,345.456 L827.316,345.456 L827.316,339.6 L831.012,339.6 L831.012,335.376 L839.268,334.08 L839.268,339.6 L845.22,339.6 L845.22,345.456 L839.268,345.456 L839.268,357.936 C839.268,359.712 840.276,360.336 842.436,360.336 C843.444,360.336 844.404,360.24 845.028,360.096 L845.316,360.24 L845.316,366 C843.972,366.384 842.052,366.528 839.892,366.528 Z" id="Flight-cards---v2.cu" fill="#26282A"></path>
            <path d="M523.748,304 L523.748,287.08 L534.788,287.08 L534.788,290.416 L528.332,290.416 L528.332,293.68 L533.852,293.68 L533.852,296.992 L528.332,296.992 L528.332,300.664 L534.908,300.664 L534.908,304 L523.748,304 Z M536.324,304 L536.324,303.808 L541.46,295.024 L536.684,287.272 L536.684,287.08 L541.772,287.08 L544.604,292.264 L547.556,287.08 L551.756,287.08 L551.756,287.272 L547.004,295.144 L552.284,303.808 L552.284,304 L547.172,304 L543.884,297.976 L540.548,304 L536.324,304 Z M552.86,304 L552.86,303.808 L558.74,287.08 L563.756,287.08 L569.636,303.808 L569.636,304 L564.836,304 L563.828,300.808 L557.948,300.808 L556.94,304 L552.86,304 Z M558.932,297.688 L562.844,297.688 L560.9,291.472 L558.932,297.688 Z M570.86,304 L572.3,287.08 L577.628,287.08 L580.868,296.968 L584.156,287.08 L589.364,287.08 L590.924,304 L586.412,304 L585.524,293.152 L581.948,304 L579.14,304 L575.588,293.152 L574.772,304 L570.86,304 Z M593.42,304 L593.42,287.08 L599.684,287.08 C603.884,287.08 606.548,288.856 606.548,292.816 C606.548,296.608 603.908,298.384 599.876,298.384 L598.004,298.384 L598.004,304 L593.42,304 Z M599.612,290.392 L598.004,290.392 L598.004,295.216 L599.684,295.216 C601.484,295.216 602.228,294.424 602.228,292.744 C602.228,291.088 601.364,290.392 599.612,290.392 Z M608.564,304 L608.564,287.08 L613.196,287.08 L613.196,300.424 L619.22,300.424 L619.22,304 L608.564,304 Z M621.524,304 L621.524,287.08 L632.564,287.08 L632.564,290.416 L626.108,290.416 L626.108,293.68 L631.628,293.68 L631.628,296.992 L626.108,296.992 L626.108,300.664 L632.684,300.664 L632.684,304 L621.524,304 Z" id="EXAMPLE" fill="#FF520D"></path>
            <path d="M985.508,172 L985.508,155.08 L987.884,155.08 L987.884,172 L985.508,172 Z M995.18,172.24 C993.452,172.24 992.06,171.928 990.98,171.4 L990.98,169.288 L991.076,169.24 C992.3,170.008 993.644,170.392 995.156,170.392 C996.74,170.392 997.628,169.72 997.628,168.568 C997.628,167.488 997.052,167.056 995.54,166.648 L994.244,166.264 C992.276,165.712 991.052,164.608 991.052,162.736 C991.052,160.504 992.852,159.112 995.444,159.112 C996.836,159.112 998.036,159.352 999.02,159.688 L999.02,161.632 L998.924,161.68 C997.844,161.224 996.668,160.96 995.396,160.96 C993.812,160.96 993.26,161.656 993.26,162.544 C993.26,163.48 993.836,163.96 994.892,164.272 L996.212,164.632 C998.66,165.352 999.884,166.12 999.884,168.376 C999.884,170.992 997.652,172.24 995.18,172.24 Z M1013.42,172.216 C1011.524,172.216 1009.892,171.304 1009.892,169.072 L1009.892,161.296 L1007.9,161.296 L1007.9,159.448 L1009.892,159.448 L1009.892,157.12 L1012.124,156.76 L1012.124,159.448 L1015.412,159.448 L1015.412,161.296 L1012.124,161.296 L1012.124,168.808 C1012.124,169.936 1012.844,170.344 1013.948,170.344 C1014.548,170.344 1015.1,170.248 1015.532,170.128 L1015.652,170.2 L1015.652,171.928 C1015.076,172.144 1014.332,172.216 1013.42,172.216 Z M1018.46,172 L1018.46,154.408 L1020.716,153.856 L1020.716,160.648 C1021.7,159.832 1022.9,159.16 1024.58,159.16 C1027.124,159.16 1028.636,160.576 1028.636,163.24 L1028.636,172 L1026.38,172 L1026.38,163.672 C1026.38,161.56 1025.276,161.032 1023.932,161.032 C1022.66,161.032 1021.7,161.392 1020.716,162.088 L1020.716,172 L1018.46,172 Z M1033.364,156.928 C1032.428,156.928 1031.996,156.472 1031.996,155.608 C1031.996,154.744 1032.428,154.312 1033.364,154.312 C1034.3,154.312 1034.708,154.744 1034.708,155.608 C1034.708,156.472 1034.3,156.928 1033.364,156.928 Z M1032.236,172 L1032.236,159.448 L1034.492,159.448 L1034.492,172 L1032.236,172 Z M1041.596,172.24 C1039.868,172.24 1038.476,171.928 1037.396,171.4 L1037.396,169.288 L1037.492,169.24 C1038.716,170.008 1040.06,170.392 1041.572,170.392 C1043.156,170.392 1044.044,169.72 1044.044,168.568 C1044.044,167.488 1043.468,167.056 1041.956,166.648 L1040.66,166.264 C1038.692,165.712 1037.468,164.608 1037.468,162.736 C1037.468,160.504 1039.268,159.112 1041.86,159.112 C1043.252,159.112 1044.452,159.352 1045.436,159.688 L1045.436,161.632 L1045.34,161.68 C1044.26,161.224 1043.084,160.96 1041.812,160.96 C1040.228,160.96 1039.676,161.656 1039.676,162.544 C1039.676,163.48 1040.252,163.96 1041.308,164.272 L1042.628,164.632 C1045.076,165.352 1046.3,166.12 1046.3,168.376 C1046.3,170.992 1044.068,172.24 1041.596,172.24 Z M1058.9,172 L1053.884,159.64 L1053.884,159.448 L1056.188,159.448 L1059.908,169.12 L1063.604,159.448 L1065.788,159.448 L1065.788,159.568 L1060.82,172 L1058.9,172 Z M1073.252,172.288 C1069.124,172.288 1066.7,169.792 1066.7,165.688 C1066.7,161.776 1069.148,159.16 1072.556,159.16 C1075.628,159.16 1077.956,161.2 1077.62,166.072 L1068.908,166.072 C1069.052,168.928 1070.54,170.368 1073.324,170.368 C1074.764,170.368 1076.036,170.128 1077.188,169.6 L1077.308,169.648 L1077.308,171.568 C1076.276,172.048 1074.908,172.288 1073.252,172.288 Z M1072.532,161.056 C1070.612,161.056 1069.364,162.208 1069.004,164.344 L1075.364,164.344 C1075.292,162.328 1074.356,161.056 1072.532,161.056 Z M1080.428,172 L1080.428,159.448 L1082.396,159.448 L1082.612,161.176 C1083.308,160.024 1084.652,159.256 1086.308,159.256 C1086.692,159.256 1087.004,159.28 1087.34,159.328 L1087.34,161.344 L1087.22,161.416 C1086.956,161.368 1086.62,161.32 1086.284,161.32 C1084.58,161.32 1083.476,161.776 1082.684,162.928 L1082.684,172 L1080.428,172 Z M1093.22,172.24 C1091.492,172.24 1090.1,171.928 1089.02,171.4 L1089.02,169.288 L1089.116,169.24 C1090.34,170.008 1091.684,170.392 1093.196,170.392 C1094.78,170.392 1095.668,169.72 1095.668,168.568 C1095.668,167.488 1095.092,167.056 1093.58,166.648 L1092.284,166.264 C1090.316,165.712 1089.092,164.608 1089.092,162.736 C1089.092,160.504 1090.892,159.112 1093.484,159.112 C1094.876,159.112 1096.076,159.352 1097.06,159.688 L1097.06,161.632 L1096.964,161.68 C1095.884,161.224 1094.708,160.96 1093.436,160.96 C1091.852,160.96 1091.3,161.656 1091.3,162.544 C1091.3,163.48 1091.876,163.96 1092.932,164.272 L1094.252,164.632 C1096.7,165.352 1097.924,166.12 1097.924,168.376 C1097.924,170.992 1095.692,172.24 1093.22,172.24 Z M1101.884,156.928 C1100.948,156.928 1100.516,156.472 1100.516,155.608 C1100.516,154.744 1100.948,154.312 1101.884,154.312 C1102.82,154.312 1103.228,154.744 1103.228,155.608 C1103.228,156.472 1102.82,156.928 1101.884,156.928 Z M1100.756,172 L1100.756,159.448 L1103.012,159.448 L1103.012,172 L1100.756,172 Z M1111.964,172.288 C1108.364,172.288 1105.868,169.672 1105.868,165.712 C1105.868,161.728 1108.364,159.16 1111.964,159.16 C1115.516,159.16 1118.06,161.728 1118.06,165.712 C1118.06,169.672 1115.516,172.288 1111.964,172.288 Z M1111.964,170.392 C1114.316,170.392 1115.804,168.64 1115.804,165.712 C1115.804,162.832 1114.316,161.056 1111.964,161.056 C1109.564,161.056 1108.124,162.832 1108.124,165.712 C1108.124,168.64 1109.564,170.392 1111.964,170.392 Z M1120.82,172 L1120.82,159.448 L1122.788,159.448 L1122.98,160.72 C1123.964,159.88 1125.188,159.16 1126.916,159.16 C1129.484,159.16 1130.996,160.576 1130.996,163.24 L1130.996,172 L1128.74,172 L1128.74,163.672 C1128.74,161.56 1127.636,161.032 1126.292,161.032 C1125.02,161.032 1124.06,161.392 1123.076,162.088 L1123.076,172 L1120.82,172 Z M982.304,200.216 C980.408,200.216 978.776,199.304 978.776,197.072 L978.776,189.296 L976.784,189.296 L976.784,187.448 L978.776,187.448 L978.776,185.12 L981.008,184.76 L981.008,187.448 L984.296,187.448 L984.296,189.296 L981.008,189.296 L981.008,196.808 C981.008,197.936 981.728,198.344 982.832,198.344 C983.432,198.344 983.984,198.248 984.416,198.128 L984.536,198.2 L984.536,199.928 C983.96,200.144 983.216,200.216 982.304,200.216 Z M987.344,200 L987.344,182.408 L989.6,181.856 L989.6,188.648 C990.584,187.832 991.784,187.16 993.464,187.16 C996.008,187.16 997.52,188.576 997.52,191.24 L997.52,200 L995.264,200 L995.264,191.672 C995.264,189.56 994.16,189.032 992.816,189.032 C991.544,189.032 990.584,189.392 989.6,190.088 L989.6,200 L987.344,200 Z M1006.736,200.288 C1002.608,200.288 1000.184,197.792 1000.184,193.688 C1000.184,189.776 1002.632,187.16 1006.04,187.16 C1009.112,187.16 1011.44,189.2 1011.104,194.072 L1002.392,194.072 C1002.536,196.928 1004.024,198.368 1006.808,198.368 C1008.248,198.368 1009.52,198.128 1010.672,197.6 L1010.792,197.648 L1010.792,199.568 C1009.76,200.048 1008.392,200.288 1006.736,200.288 Z M1006.016,189.056 C1004.096,189.056 1002.848,190.208 1002.488,192.344 L1008.848,192.344 C1008.776,190.328 1007.84,189.056 1006.016,189.056 Z M1028.888,200 L1028.624,198.392 C1027.688,199.592 1026.416,200.288 1024.736,200.288 C1021.376,200.288 1019.288,197.912 1019.288,193.904 C1019.288,189.824 1021.352,187.16 1024.928,187.16 C1026.32,187.16 1027.472,187.688 1028.384,188.624 L1028.384,182.408 L1030.64,181.856 L1030.64,200 L1028.888,200 Z M1021.544,193.904 C1021.544,197.096 1023.056,198.392 1025.024,198.392 C1026.536,198.392 1027.52,197.864 1028.384,196.976 L1028.384,190.256 C1027.496,189.464 1026.536,189.056 1025.12,189.056 C1022.984,189.056 1021.544,190.616 1021.544,193.904 Z M1039.952,200.288 C1035.824,200.288 1033.4,197.792 1033.4,193.688 C1033.4,189.776 1035.848,187.16 1039.256,187.16 C1042.328,187.16 1044.656,189.2 1044.32,194.072 L1035.608,194.072 C1035.752,196.928 1037.24,198.368 1040.024,198.368 C1041.464,198.368 1042.736,198.128 1043.888,197.6 L1044.008,197.648 L1044.008,199.568 C1042.976,200.048 1041.608,200.288 1039.952,200.288 Z M1039.232,189.056 C1037.312,189.056 1036.064,190.208 1035.704,192.344 L1042.064,192.344 C1041.992,190.328 1041.056,189.056 1039.232,189.056 Z M1050.656,200.24 C1048.928,200.24 1047.536,199.928 1046.456,199.4 L1046.456,197.288 L1046.552,197.24 C1047.776,198.008 1049.12,198.392 1050.632,198.392 C1052.216,198.392 1053.104,197.72 1053.104,196.568 C1053.104,195.488 1052.528,195.056 1051.016,194.648 L1049.72,194.264 C1047.752,193.712 1046.528,192.608 1046.528,190.736 C1046.528,188.504 1048.328,187.112 1050.92,187.112 C1052.312,187.112 1053.512,187.352 1054.496,187.688 L1054.496,189.632 L1054.4,189.68 C1053.32,189.224 1052.144,188.96 1050.872,188.96 C1049.288,188.96 1048.736,189.656 1048.736,190.544 C1048.736,191.48 1049.312,191.96 1050.368,192.272 L1051.688,192.632 C1054.136,193.352 1055.36,194.12 1055.36,196.376 C1055.36,198.992 1053.128,200.24 1050.656,200.24 Z M1059.32,184.928 C1058.384,184.928 1057.952,184.472 1057.952,183.608 C1057.952,182.744 1058.384,182.312 1059.32,182.312 C1060.256,182.312 1060.664,182.744 1060.664,183.608 C1060.664,184.472 1060.256,184.928 1059.32,184.928 Z M1058.192,200 L1058.192,187.448 L1060.448,187.448 L1060.448,200 L1058.192,200 Z M1068.08,195.728 C1067.6,195.728 1067.144,195.68 1066.712,195.584 C1065.848,195.944 1065.56,196.376 1065.56,196.832 C1065.56,197.408 1065.92,197.576 1066.928,197.624 L1070.456,197.768 C1072.88,197.864 1074.248,198.752 1074.248,201.128 C1074.248,203.624 1072.016,205.328 1068.128,205.328 C1064.648,205.328 1062.584,204.32 1062.584,202.112 C1062.584,200.768 1063.376,199.88 1064.648,199.184 C1063.952,198.776 1063.64,198.152 1063.64,197.384 C1063.64,196.352 1064.216,195.56 1065.272,195.008 C1064.024,194.312 1063.208,193.112 1063.208,191.528 C1063.208,188.888 1065.296,187.208 1068.08,187.208 C1068.848,187.208 1069.616,187.376 1070.288,187.64 L1074.176,187.328 L1074.176,189.128 L1071.968,189.128 C1072.496,189.68 1072.928,190.496 1072.928,191.552 C1072.928,194.144 1070.744,195.728 1068.08,195.728 Z M1068.104,194.192 C1069.64,194.192 1070.864,193.16 1070.864,191.528 C1070.864,189.848 1069.64,188.864 1068.104,188.864 C1066.544,188.864 1065.344,189.848 1065.344,191.528 C1065.344,193.16 1066.544,194.192 1068.104,194.192 Z M1064.672,201.728 C1064.672,203 1065.728,203.6 1068.128,203.6 C1070.84,203.6 1072.112,202.544 1072.112,201.2 C1072.112,200.192 1071.584,199.88 1070.192,199.832 L1066.64,199.688 C1066.424,199.688 1066.208,199.664 1066.016,199.64 C1065.104,200.24 1064.672,200.96 1064.672,201.728 Z M1076.456,200 L1076.456,187.448 L1078.424,187.448 L1078.616,188.72 C1079.6,187.88 1080.824,187.16 1082.552,187.16 C1085.12,187.16 1086.632,188.576 1086.632,191.24 L1086.632,200 L1084.376,200 L1084.376,191.672 C1084.376,189.56 1083.272,189.032 1081.928,189.032 C1080.656,189.032 1079.696,189.392 1078.712,190.088 L1078.712,200 L1076.456,200 Z M1100.936,200.216 C1099.04,200.216 1097.408,199.304 1097.408,197.072 L1097.408,189.296 L1095.416,189.296 L1095.416,187.448 L1097.408,187.448 L1097.408,185.12 L1099.64,184.76 L1099.64,187.448 L1102.928,187.448 L1102.928,189.296 L1099.64,189.296 L1099.64,196.808 C1099.64,197.936 1100.36,198.344 1101.464,198.344 C1102.064,198.344 1102.616,198.248 1103.048,198.128 L1103.168,198.2 L1103.168,199.928 C1102.592,200.144 1101.848,200.216 1100.936,200.216 Z M1105.976,200 L1105.976,182.408 L1108.232,181.856 L1108.232,188.648 C1109.216,187.832 1110.416,187.16 1112.096,187.16 C1114.64,187.16 1116.152,188.576 1116.152,191.24 L1116.152,200 L1113.896,200 L1113.896,191.672 C1113.896,189.56 1112.792,189.032 1111.448,189.032 C1110.176,189.032 1109.216,189.392 1108.232,190.088 L1108.232,200 L1105.976,200 Z M1123.112,200.288 C1120.64,200.288 1118.792,199.016 1118.792,196.64 C1118.792,194.024 1120.928,193.208 1123.904,192.776 L1126.616,192.344 L1126.616,192.224 C1126.616,189.848 1125.608,189.104 1123.496,189.104 C1122.152,189.104 1121.12,189.32 1119.848,189.848 L1119.752,189.8 L1119.752,187.928 C1120.856,187.424 1122.104,187.16 1123.712,187.16 C1126.928,187.16 1128.872,188.528 1128.872,192.056 L1128.872,200 L1126.928,200 L1126.736,198.56 C1126.088,199.472 1124.984,200.288 1123.112,200.288 Z M1121.048,196.616 C1121.048,197.72 1121.816,198.44 1123.376,198.44 C1124.936,198.44 1125.968,197.792 1126.616,196.928 L1126.616,194.048 L1124.408,194.384 C1121.984,194.768 1121.048,195.272 1121.048,196.616 Z M1136.84,200.216 C1134.944,200.216 1133.312,199.304 1133.312,197.072 L1133.312,189.296 L1131.32,189.296 L1131.32,187.448 L1133.312,187.448 L1133.312,185.12 L1135.544,184.76 L1135.544,187.448 L1138.832,187.448 L1138.832,189.296 L1135.544,189.296 L1135.544,196.808 C1135.544,197.936 1136.264,198.344 1137.368,198.344 C1137.968,198.344 1138.52,198.248 1138.952,198.128 L1139.072,198.2 L1139.072,199.928 C1138.496,200.144 1137.752,200.216 1136.84,200.216 Z M960.032,228 L960.032,210.408 L962.288,209.856 L962.288,216.648 C963.272,215.832 964.472,215.16 966.152,215.16 C968.696,215.16 970.208,216.576 970.208,219.24 L970.208,228 L967.952,228 L967.952,219.672 C967.952,217.56 966.848,217.032 965.504,217.032 C964.232,217.032 963.272,217.392 962.288,218.088 L962.288,228 L960.032,228 Z M977.168,228.288 C974.696,228.288 972.848,227.016 972.848,224.64 C972.848,222.024 974.984,221.208 977.96,220.776 L980.672,220.344 L980.672,220.224 C980.672,217.848 979.664,217.104 977.552,217.104 C976.208,217.104 975.176,217.32 973.904,217.848 L973.808,217.8 L973.808,215.928 C974.912,215.424 976.16,215.16 977.768,215.16 C980.984,215.16 982.928,216.528 982.928,220.056 L982.928,228 L980.984,228 L980.792,226.56 C980.144,227.472 979.04,228.288 977.168,228.288 Z M975.104,224.616 C975.104,225.72 975.872,226.44 977.432,226.44 C978.992,226.44 980.024,225.792 980.672,224.928 L980.672,222.048 L978.464,222.384 C976.04,222.768 975.104,223.272 975.104,224.616 Z M989.84,228.24 C988.112,228.24 986.72,227.928 985.64,227.4 L985.64,225.288 L985.736,225.24 C986.96,226.008 988.304,226.392 989.816,226.392 C991.4,226.392 992.288,225.72 992.288,224.568 C992.288,223.488 991.712,223.056 990.2,222.648 L988.904,222.264 C986.936,221.712 985.712,220.608 985.712,218.736 C985.712,216.504 987.512,215.112 990.104,215.112 C991.496,215.112 992.696,215.352 993.68,215.688 L993.68,217.632 L993.584,217.68 C992.504,217.224 991.328,216.96 990.056,216.96 C988.472,216.96 987.92,217.656 987.92,218.544 C987.92,219.48 988.496,219.96 989.552,220.272 L990.872,220.632 C993.32,221.352 994.544,222.12 994.544,224.376 C994.544,226.992 992.312,228.24 989.84,228.24 Z M1003.496,228 L1003.496,210.408 L1005.752,209.856 L1005.752,216.792 C1006.664,215.76 1007.864,215.16 1009.4,215.16 C1012.784,215.16 1014.872,217.56 1014.872,221.544 C1014.872,225.624 1012.784,228.288 1009.232,228.288 C1007.744,228.288 1006.52,227.688 1005.584,226.656 L1005.44,228 L1003.496,228 Z M1009.136,217.08 C1007.6,217.08 1006.64,217.584 1005.752,218.496 L1005.752,225.192 C1006.64,226.008 1007.624,226.392 1009.04,226.392 C1011.176,226.392 1012.592,224.832 1012.592,221.544 C1012.592,218.352 1011.104,217.08 1009.136,217.08 Z M1023.344,228.288 C1019.216,228.288 1016.792,225.792 1016.792,221.688 C1016.792,217.776 1019.24,215.16 1022.648,215.16 C1025.72,215.16 1028.048,217.2 1027.712,222.072 L1019,222.072 C1019.144,224.928 1020.632,226.368 1023.416,226.368 C1024.856,226.368 1026.128,226.128 1027.28,225.6 L1027.4,225.648 L1027.4,227.568 C1026.368,228.048 1025,228.288 1023.344,228.288 Z M1022.624,217.056 C1020.704,217.056 1019.456,218.208 1019.096,220.344 L1025.456,220.344 C1025.384,218.328 1024.448,217.056 1022.624,217.056 Z M1036.232,228.288 C1032.104,228.288 1029.68,225.792 1029.68,221.688 C1029.68,217.776 1032.128,215.16 1035.536,215.16 C1038.608,215.16 1040.936,217.2 1040.6,222.072 L1031.888,222.072 C1032.032,224.928 1033.52,226.368 1036.304,226.368 C1037.744,226.368 1039.016,226.128 1040.168,225.6 L1040.288,225.648 L1040.288,227.568 C1039.256,228.048 1037.888,228.288 1036.232,228.288 Z M1035.512,217.056 C1033.592,217.056 1032.344,218.208 1031.984,220.344 L1038.344,220.344 C1038.272,218.328 1037.336,217.056 1035.512,217.056 Z M1043.408,228 L1043.408,215.448 L1045.376,215.448 L1045.568,216.72 C1046.552,215.88 1047.776,215.16 1049.504,215.16 C1052.072,215.16 1053.584,216.576 1053.584,219.24 L1053.584,228 L1051.328,228 L1051.328,219.672 C1051.328,217.56 1050.224,217.032 1048.88,217.032 C1047.608,217.032 1046.648,217.392 1045.664,218.088 L1045.664,228 L1043.408,228 Z M1063.304,228 L1063.304,210.408 L1065.56,209.856 L1065.56,216.792 C1066.472,215.76 1067.672,215.16 1069.208,215.16 C1072.592,215.16 1074.68,217.56 1074.68,221.544 C1074.68,225.624 1072.592,228.288 1069.04,228.288 C1067.552,228.288 1066.328,227.688 1065.392,226.656 L1065.248,228 L1063.304,228 Z M1068.944,217.08 C1067.408,217.08 1066.448,217.584 1065.56,218.496 L1065.56,225.192 C1066.448,226.008 1067.432,226.392 1068.848,226.392 C1070.984,226.392 1072.4,224.832 1072.4,221.544 C1072.4,218.352 1070.912,217.08 1068.944,217.08 Z M1081.496,228.288 C1078.928,228.288 1077.296,226.872 1077.296,224.232 L1077.296,215.448 L1079.552,215.448 L1079.552,223.776 C1079.552,225.888 1080.776,226.416 1082.12,226.416 C1083.416,226.416 1084.448,226.08 1085.456,225.384 L1085.456,215.448 L1087.712,215.448 L1087.712,228 L1085.744,228 L1085.552,226.728 C1084.544,227.568 1083.248,228.288 1081.496,228.288 Z M1092.536,212.928 C1091.6,212.928 1091.168,212.472 1091.168,211.608 C1091.168,210.744 1091.6,210.312 1092.536,210.312 C1093.472,210.312 1093.88,210.744 1093.88,211.608 C1093.88,212.472 1093.472,212.928 1092.536,212.928 Z M1091.408,228 L1091.408,215.448 L1093.664,215.448 L1093.664,228 L1091.408,228 Z M1099.616,228 L1097.36,228 L1097.36,210.408 L1099.616,209.856 L1099.616,228 Z M1107.8,228.216 C1105.904,228.216 1104.272,227.304 1104.272,225.072 L1104.272,217.296 L1102.28,217.296 L1102.28,215.448 L1104.272,215.448 L1104.272,213.12 L1106.504,212.76 L1106.504,215.448 L1109.792,215.448 L1109.792,217.296 L1106.504,217.296 L1106.504,224.808 C1106.504,225.936 1107.224,226.344 1108.328,226.344 C1108.928,226.344 1109.48,226.248 1109.912,226.128 L1110.032,226.2 L1110.032,227.928 C1109.456,228.144 1108.712,228.216 1107.8,228.216 Z M1122.512,228.288 C1120.04,228.288 1118.192,227.016 1118.192,224.64 C1118.192,222.024 1120.328,221.208 1123.304,220.776 L1126.016,220.344 L1126.016,220.224 C1126.016,217.848 1125.008,217.104 1122.896,217.104 C1121.552,217.104 1120.52,217.32 1119.248,217.848 L1119.152,217.8 L1119.152,215.928 C1120.256,215.424 1121.504,215.16 1123.112,215.16 C1126.328,215.16 1128.272,216.528 1128.272,220.056 L1128.272,228 L1126.328,228 L1126.136,226.56 C1125.488,227.472 1124.384,228.288 1122.512,228.288 Z M1120.448,224.616 C1120.448,225.72 1121.216,226.44 1122.776,226.44 C1124.336,226.44 1125.368,225.792 1126.016,224.928 L1126.016,222.048 L1123.808,222.384 C1121.384,222.768 1120.448,223.272 1120.448,224.616 Z M1131.776,228 L1131.776,215.448 L1133.744,215.448 L1133.936,216.72 C1134.92,215.88 1136.144,215.16 1137.872,215.16 C1140.44,215.16 1141.952,216.576 1141.952,219.24 L1141.952,228 L1139.696,228 L1139.696,219.672 C1139.696,217.56 1138.592,217.032 1137.248,217.032 C1135.976,217.032 1135.016,217.392 1134.032,218.088 L1134.032,228 L1131.776,228 Z M1154.216,228 L1153.952,226.392 C1153.016,227.592 1151.744,228.288 1150.064,228.288 C1146.704,228.288 1144.616,225.912 1144.616,221.904 C1144.616,217.824 1146.68,215.16 1150.256,215.16 C1151.648,215.16 1152.8,215.688 1153.712,216.624 L1153.712,210.408 L1155.968,209.856 L1155.968,228 L1154.216,228 Z M1146.872,221.904 C1146.872,225.096 1148.384,226.392 1150.352,226.392 C1151.864,226.392 1152.848,225.864 1153.712,224.976 L1153.712,218.256 C1152.824,217.464 1151.864,217.056 1150.448,217.056 C1148.312,217.056 1146.872,218.616 1146.872,221.904 Z M1018.496,256 L1018.232,254.392 C1017.296,255.592 1016.024,256.288 1014.344,256.288 C1010.984,256.288 1008.896,253.912 1008.896,249.904 C1008.896,245.824 1010.96,243.16 1014.536,243.16 C1015.928,243.16 1017.08,243.688 1017.992,244.624 L1017.992,238.408 L1020.248,237.856 L1020.248,256 L1018.496,256 Z M1011.152,249.904 C1011.152,253.096 1012.664,254.392 1014.632,254.392 C1016.144,254.392 1017.128,253.864 1017.992,252.976 L1017.992,246.256 C1017.104,245.464 1016.144,245.056 1014.728,245.056 C1012.592,245.056 1011.152,246.616 1011.152,249.904 Z M1029.56,256.288 C1025.432,256.288 1023.008,253.792 1023.008,249.688 C1023.008,245.776 1025.456,243.16 1028.864,243.16 C1031.936,243.16 1034.264,245.2 1033.928,250.072 L1025.216,250.072 C1025.36,252.928 1026.848,254.368 1029.632,254.368 C1031.072,254.368 1032.344,254.128 1033.496,253.6 L1033.616,253.648 L1033.616,255.568 C1032.584,256.048 1031.216,256.288 1029.56,256.288 Z M1028.84,245.056 C1026.92,245.056 1025.672,246.208 1025.312,248.344 L1031.672,248.344 C1031.6,246.328 1030.664,245.056 1028.84,245.056 Z M1038.992,256 L1036.736,256 L1036.736,238.408 L1038.992,237.856 L1038.992,256 Z M1043.816,240.928 C1042.88,240.928 1042.448,240.472 1042.448,239.608 C1042.448,238.744 1042.88,238.312 1043.816,238.312 C1044.752,238.312 1045.16,238.744 1045.16,239.608 C1045.16,240.472 1044.752,240.928 1043.816,240.928 Z M1042.688,256 L1042.688,243.448 L1044.944,243.448 L1044.944,256 L1042.688,256 Z M1052.288,256 L1047.272,243.64 L1047.272,243.448 L1049.576,243.448 L1053.296,253.12 L1056.992,243.448 L1059.176,243.448 L1059.176,243.568 L1054.208,256 L1052.288,256 Z M1066.64,256.288 C1062.512,256.288 1060.088,253.792 1060.088,249.688 C1060.088,245.776 1062.536,243.16 1065.944,243.16 C1069.016,243.16 1071.344,245.2 1071.008,250.072 L1062.296,250.072 C1062.44,252.928 1063.928,254.368 1066.712,254.368 C1068.152,254.368 1069.424,254.128 1070.576,253.6 L1070.696,253.648 L1070.696,255.568 C1069.664,256.048 1068.296,256.288 1066.64,256.288 Z M1065.92,245.056 C1064,245.056 1062.752,246.208 1062.392,248.344 L1068.752,248.344 C1068.68,246.328 1067.744,245.056 1065.92,245.056 Z M1073.816,256 L1073.816,243.448 L1075.784,243.448 L1076,245.176 C1076.696,244.024 1078.04,243.256 1079.696,243.256 C1080.08,243.256 1080.392,243.28 1080.728,243.328 L1080.728,245.344 L1080.608,245.416 C1080.344,245.368 1080.008,245.32 1079.672,245.32 C1077.968,245.32 1076.864,245.776 1076.072,246.928 L1076.072,256 L1073.816,256 Z M1088.576,256.288 C1084.448,256.288 1082.024,253.792 1082.024,249.688 C1082.024,245.776 1084.472,243.16 1087.88,243.16 C1090.952,243.16 1093.28,245.2 1092.944,250.072 L1084.232,250.072 C1084.376,252.928 1085.864,254.368 1088.648,254.368 C1090.088,254.368 1091.36,254.128 1092.512,253.6 L1092.632,253.648 L1092.632,255.568 C1091.6,256.048 1090.232,256.288 1088.576,256.288 Z M1087.856,245.056 C1085.936,245.056 1084.688,246.208 1084.328,248.344 L1090.688,248.344 C1090.616,246.328 1089.68,245.056 1087.856,245.056 Z M1104.512,256 L1104.248,254.392 C1103.312,255.592 1102.04,256.288 1100.36,256.288 C1097,256.288 1094.912,253.912 1094.912,249.904 C1094.912,245.824 1096.976,243.16 1100.552,243.16 C1101.944,243.16 1103.096,243.688 1104.008,244.624 L1104.008,238.408 L1106.264,237.856 L1106.264,256 L1104.512,256 Z M1097.168,249.904 C1097.168,253.096 1098.68,254.392 1100.648,254.392 C1102.16,254.392 1103.144,253.864 1104.008,252.976 L1104.008,246.256 C1103.12,245.464 1102.16,245.056 1100.744,245.056 C1098.608,245.056 1097.168,246.616 1097.168,249.904 Z" id="Is-this-version-the" fill="#5B636A"></path>
            <g id="Straight-/-Flat" transform="translate(1058.000000, 99.000000) rotate(-270.000000) translate(-1058.000000, -99.000000) translate(1018.000000, 91.000000)">
                <path d="M6,8 L69,8" id="horiz" stroke="#26282A" stroke-width="4"></path>
                <g id="Point-/-Arrow" transform="translate(56.000000, -4.000000)" fill="#26282A" fill-rule="evenodd">
                    <path d="M11.7338228,10.6764629 L15.2517488,16.7696895 C15.8040335,17.7262747 15.4762832,18.9494556 14.519698,19.5017403 C14.2130304,19.6787949 13.8648524,19.7712543 13.5107467,19.7696695 L6.52901804,19.7384213 C5.4244596,19.7334776 4.53304571,18.8340485 4.53798938,17.72949 C4.5395335,17.3844894 4.63029715,17.0457548 4.80146023,16.7462034 L8.26526287,10.684225 C8.81326074,9.7251775 10.0349624,9.39195594 10.9940099,9.93995381 C11.3014669,10.1156341 11.5567682,10.3697953 11.7338228,10.6764629 Z" id="point" transform="translate(10.046633, 13.723076) rotate(-150.000000) translate(-10.046633, -13.723076) "></path>
                </g>
            </g>
            <path d="M486.668,172 L486.668,155.08 L489.044,155.08 L489.044,172 L486.668,172 Z M497.636,172.216 C495.74,172.216 494.108,171.304 494.108,169.072 L494.108,161.296 L492.116,161.296 L492.116,159.448 L494.108,159.448 L494.108,157.12 L496.34,156.76 L496.34,159.448 L499.628,159.448 L499.628,161.296 L496.34,161.296 L496.34,168.808 C496.34,169.936 497.06,170.344 498.164,170.344 C498.764,170.344 499.316,170.248 499.748,170.128 L499.868,170.2 L499.868,171.928 C499.292,172.144 498.548,172.216 497.636,172.216 Z M508.028,172.288 C503.9,172.288 501.476,169.792 501.476,165.688 C501.476,161.776 503.924,159.16 507.332,159.16 C510.404,159.16 512.732,161.2 512.396,166.072 L503.684,166.072 C503.828,168.928 505.316,170.368 508.1,170.368 C509.54,170.368 510.812,170.128 511.964,169.6 L512.084,169.648 L512.084,171.568 C511.052,172.048 509.684,172.288 508.028,172.288 Z M507.308,161.056 C505.388,161.056 504.14,162.208 503.78,164.344 L510.14,164.344 C510.068,162.328 509.132,161.056 507.308,161.056 Z M515.204,172 L515.204,159.448 L517.172,159.448 L517.388,161.176 C518.084,160.024 519.428,159.256 521.084,159.256 C521.468,159.256 521.78,159.28 522.116,159.328 L522.116,161.344 L521.996,161.416 C521.732,161.368 521.396,161.32 521.06,161.32 C519.356,161.32 518.252,161.776 517.46,162.928 L517.46,172 L515.204,172 Z M527.684,172.288 C525.212,172.288 523.364,171.016 523.364,168.64 C523.364,166.024 525.5,165.208 528.476,164.776 L531.188,164.344 L531.188,164.224 C531.188,161.848 530.18,161.104 528.068,161.104 C526.724,161.104 525.692,161.32 524.42,161.848 L524.324,161.8 L524.324,159.928 C525.428,159.424 526.676,159.16 528.284,159.16 C531.5,159.16 533.444,160.528 533.444,164.056 L533.444,172 L531.5,172 L531.308,170.56 C530.66,171.472 529.556,172.288 527.684,172.288 Z M525.62,168.616 C525.62,169.72 526.388,170.44 527.948,170.44 C529.508,170.44 530.54,169.792 531.188,168.928 L531.188,166.048 L528.98,166.384 C526.556,166.768 525.62,167.272 525.62,168.616 Z M541.412,172.216 C539.516,172.216 537.884,171.304 537.884,169.072 L537.884,161.296 L535.892,161.296 L535.892,159.448 L537.884,159.448 L537.884,157.12 L540.116,156.76 L540.116,159.448 L543.404,159.448 L543.404,161.296 L540.116,161.296 L540.116,168.808 C540.116,169.936 540.836,170.344 541.94,170.344 C542.54,170.344 543.092,170.248 543.524,170.128 L543.644,170.2 L543.644,171.928 C543.068,172.144 542.324,172.216 541.412,172.216 Z M547.676,156.928 C546.74,156.928 546.308,156.472 546.308,155.608 C546.308,154.744 546.74,154.312 547.676,154.312 C548.612,154.312 549.02,154.744 549.02,155.608 C549.02,156.472 548.612,156.928 547.676,156.928 Z M546.548,172 L546.548,159.448 L548.804,159.448 L548.804,172 L546.548,172 Z M557.756,172.288 C554.156,172.288 551.66,169.672 551.66,165.712 C551.66,161.728 554.156,159.16 557.756,159.16 C561.308,159.16 563.852,161.728 563.852,165.712 C563.852,169.672 561.308,172.288 557.756,172.288 Z M557.756,170.392 C560.108,170.392 561.596,168.64 561.596,165.712 C561.596,162.832 560.108,161.056 557.756,161.056 C555.356,161.056 553.916,162.832 553.916,165.712 C553.916,168.64 555.356,170.392 557.756,170.392 Z M566.612,172 L566.612,159.448 L568.58,159.448 L568.772,160.72 C569.756,159.88 570.98,159.16 572.708,159.16 C575.276,159.16 576.788,160.576 576.788,163.24 L576.788,172 L574.532,172 L574.532,163.672 C574.532,161.56 573.428,161.032 572.084,161.032 C570.812,161.032 569.852,161.392 568.868,162.088 L568.868,172 L566.612,172 Z M592.292,172.288 C588.068,172.288 585.668,169.696 585.668,165.712 C585.668,161.656 588.236,159.16 592.172,159.16 C593.348,159.16 594.404,159.328 595.292,159.592 L595.292,161.536 L595.196,161.608 C594.164,161.224 593.3,161.08 592.292,161.08 C589.58,161.08 587.948,162.688 587.948,165.712 C587.948,168.64 589.34,170.392 592.388,170.392 C593.54,170.392 594.524,170.2 595.508,169.696 L595.604,169.744 L595.604,171.64 C594.716,172.096 593.588,172.288 592.292,172.288 Z M603.428,172.288 C599.828,172.288 597.332,169.672 597.332,165.712 C597.332,161.728 599.828,159.16 603.428,159.16 C606.98,159.16 609.524,161.728 609.524,165.712 C609.524,169.672 606.98,172.288 603.428,172.288 Z M603.428,170.392 C605.78,170.392 607.268,168.64 607.268,165.712 C607.268,162.832 605.78,161.056 603.428,161.056 C601.028,161.056 599.588,162.832 599.588,165.712 C599.588,168.64 601.028,170.392 603.428,170.392 Z M616.34,172.288 C613.772,172.288 612.14,170.872 612.14,168.232 L612.14,159.448 L614.396,159.448 L614.396,167.776 C614.396,169.888 615.62,170.416 616.964,170.416 C618.26,170.416 619.292,170.08 620.3,169.384 L620.3,159.448 L622.556,159.448 L622.556,172 L620.588,172 L620.396,170.728 C619.388,171.568 618.092,172.288 616.34,172.288 Z M626.156,172 L626.156,159.448 L628.124,159.448 L628.316,160.72 C629.3,159.88 630.524,159.16 632.252,159.16 C634.82,159.16 636.332,160.576 636.332,163.24 L636.332,172 L634.076,172 L634.076,163.672 C634.076,161.56 632.972,161.032 631.628,161.032 C630.356,161.032 629.396,161.392 628.412,162.088 L628.412,172 L626.156,172 Z M644.3,172.216 C642.404,172.216 640.772,171.304 640.772,169.072 L640.772,161.296 L638.78,161.296 L638.78,159.448 L640.772,159.448 L640.772,157.12 L643.004,156.76 L643.004,159.448 L646.292,159.448 L646.292,161.296 L643.004,161.296 L643.004,168.808 C643.004,169.936 643.724,170.344 644.828,170.344 C645.428,170.344 645.98,170.248 646.412,170.128 L646.532,170.2 L646.532,171.928 C645.956,172.144 645.212,172.216 644.3,172.216 Z" id="Iteration-count" fill="#5B636A"></path>
            <g id="Straight-/-Flat" transform="translate(566.000000, 99.000000) rotate(-270.000000) translate(-566.000000, -99.000000) translate(526.000000, 91.000000)">
                <path d="M6,8 L69,8" id="horiz" stroke="#26282A" stroke-width="4"></path>
                <g id="Point-/-Arrow" transform="translate(56.000000, -4.000000)" fill="#26282A" fill-rule="evenodd">
                    <path d="M11.7338228,10.6764629 L15.2517488,16.7696895 C15.8040335,17.7262747 15.4762832,18.9494556 14.519698,19.5017403 C14.2130304,19.6787949 13.8648524,19.7712543 13.5107467,19.7696695 L6.52901804,19.7384213 C5.4244596,19.7334776 4.53304571,18.8340485 4.53798938,17.72949 C4.5395335,17.3844894 4.63029715,17.0457548 4.80146023,16.7462034 L8.26526287,10.684225 C8.81326074,9.7251775 10.0349624,9.39195594 10.9940099,9.93995381 C11.3014669,10.1156341 11.5567682,10.3697953 11.7338228,10.6764629 Z" id="point" transform="translate(10.046633, 13.723076) rotate(-150.000000) translate(-10.046633, -13.723076) "></path>
                </g>
            </g>
            <path d="M21.84,172 L21.84,155.08 L24.288,155.08 L33.456,168.088 L33.456,155.08 L35.664,155.08 L35.664,172 L33.504,172 L24.048,158.608 L24.048,172 L21.84,172 Z M45.096,172.288 C40.968,172.288 38.544,169.792 38.544,165.688 C38.544,161.776 40.992,159.16 44.4,159.16 C47.472,159.16 49.8,161.2 49.464,166.072 L40.752,166.072 C40.896,168.928 42.384,170.368 45.168,170.368 C46.608,170.368 47.88,170.128 49.032,169.6 L49.152,169.648 L49.152,171.568 C48.12,172.048 46.752,172.288 45.096,172.288 Z M44.376,161.056 C42.456,161.056 41.208,162.208 40.848,164.344 L47.208,164.344 C47.136,162.328 46.2,161.056 44.376,161.056 Z M57.984,172.288 C53.856,172.288 51.432,169.792 51.432,165.688 C51.432,161.776 53.88,159.16 57.288,159.16 C60.36,159.16 62.688,161.2 62.352,166.072 L53.64,166.072 C53.784,168.928 55.272,170.368 58.056,170.368 C59.496,170.368 60.768,170.128 61.92,169.6 L62.04,169.648 L62.04,171.568 C61.008,172.048 59.64,172.288 57.984,172.288 Z M57.264,161.056 C55.344,161.056 54.096,162.208 53.736,164.344 L60.096,164.344 C60.024,162.328 59.088,161.056 57.264,161.056 Z M73.92,172 L73.656,170.392 C72.72,171.592 71.448,172.288 69.768,172.288 C66.408,172.288 64.32,169.912 64.32,165.904 C64.32,161.824 66.384,159.16 69.96,159.16 C71.352,159.16 72.504,159.688 73.416,160.624 L73.416,154.408 L75.672,153.856 L75.672,172 L73.92,172 Z M66.576,165.904 C66.576,169.096 68.088,170.392 70.056,170.392 C71.568,170.392 72.552,169.864 73.416,168.976 L73.416,162.256 C72.528,161.464 71.568,161.056 70.152,161.056 C68.016,161.056 66.576,162.616 66.576,165.904 Z M84.984,172.288 C80.856,172.288 78.432,169.792 78.432,165.688 C78.432,161.776 80.88,159.16 84.288,159.16 C87.36,159.16 89.688,161.2 89.352,166.072 L80.64,166.072 C80.784,168.928 82.272,170.368 85.056,170.368 C86.496,170.368 87.768,170.128 88.92,169.6 L89.04,169.648 L89.04,171.568 C88.008,172.048 86.64,172.288 84.984,172.288 Z M84.264,161.056 C82.344,161.056 81.096,162.208 80.736,164.344 L87.096,164.344 C87.024,162.328 86.088,161.056 84.264,161.056 Z M100.92,172 L100.656,170.392 C99.72,171.592 98.448,172.288 96.768,172.288 C93.408,172.288 91.32,169.912 91.32,165.904 C91.32,161.824 93.384,159.16 96.96,159.16 C98.352,159.16 99.504,159.688 100.416,160.624 L100.416,154.408 L102.672,153.856 L102.672,172 L100.92,172 Z M93.576,165.904 C93.576,169.096 95.088,170.392 97.056,170.392 C98.568,170.392 99.552,169.864 100.416,168.976 L100.416,162.256 C99.528,161.464 98.568,161.056 97.152,161.056 C95.016,161.056 93.576,162.616 93.576,165.904 Z M117.744,172.288 C114.144,172.288 111.648,169.672 111.648,165.712 C111.648,161.728 114.144,159.16 117.744,159.16 C121.296,159.16 123.84,161.728 123.84,165.712 C123.84,169.672 121.296,172.288 117.744,172.288 Z M117.744,170.392 C120.096,170.392 121.584,168.64 121.584,165.712 C121.584,162.832 120.096,161.056 117.744,161.056 C115.344,161.056 113.904,162.832 113.904,165.712 C113.904,168.64 115.344,170.392 117.744,170.392 Z M126.6,172 L126.6,159.448 L128.568,159.448 L128.76,160.72 C129.744,159.88 130.968,159.16 132.696,159.16 C135.264,159.16 136.776,160.576 136.776,163.24 L136.776,172 L134.52,172 L134.52,163.672 C134.52,161.56 133.416,161.032 132.072,161.032 C130.8,161.032 129.84,161.392 128.856,162.088 L128.856,172 L126.6,172 Z M142.536,172 L140.28,172 L140.28,154.408 L142.536,153.856 L142.536,172 Z M145.944,177.304 L145.944,175.288 C147.648,175.024 148.416,174.352 148.968,172.984 L149.592,171.424 L144.768,159.592 L144.768,159.448 L147.144,159.448 L150.768,168.76 L154.248,159.448 L156.456,159.448 L156.456,159.592 L151.104,173.44 C150.12,175.984 148.656,177.088 145.944,177.304 Z M166.128,156.928 C165.192,156.928 164.76,156.472 164.76,155.608 C164.76,154.744 165.192,154.312 166.128,154.312 C167.064,154.312 167.472,154.744 167.472,155.608 C167.472,156.472 167.064,156.928 166.128,156.928 Z M165,172 L165,159.448 L167.256,159.448 L167.256,172 L165,172 Z M171.888,172 L171.888,161.296 L169.92,161.296 L169.92,159.448 L171.888,159.448 L171.888,158.224 C171.888,154.504 174.432,153.736 176.592,153.736 C177.336,153.736 177.816,153.808 178.032,153.856 L178.032,155.608 C177.84,155.584 177.504,155.56 176.736,155.56 C175.416,155.56 174.144,156.064 174.144,158.32 L174.144,159.448 L177.528,159.448 L177.528,161.296 L174.144,161.296 L174.144,172 L171.888,172 Z M3.636,200 L3.636,187.448 L5.604,187.448 L5.796,188.696 C6.732,187.856 7.86,187.16 9.516,187.16 C11.124,187.16 12.276,187.784 12.9,189.032 C13.932,188.048 15.108,187.16 17.004,187.16 C19.428,187.16 20.868,188.576 20.868,191.24 L20.868,200 L18.612,200 L18.612,191.672 C18.612,189.56 17.58,189.032 16.38,189.032 C15.132,189.032 14.292,189.368 13.38,190.04 L13.38,200 L11.124,200 L11.124,191.672 C11.124,189.56 10.116,189.032 8.892,189.032 C7.644,189.032 6.804,189.368 5.892,190.064 L5.892,200 L3.636,200 Z M28.428,200.288 C25.86,200.288 24.228,198.872 24.228,196.232 L24.228,187.448 L26.484,187.448 L26.484,195.776 C26.484,197.888 27.708,198.416 29.052,198.416 C30.348,198.416 31.38,198.08 32.388,197.384 L32.388,187.448 L34.644,187.448 L34.644,200 L32.676,200 L32.484,198.728 C31.476,199.568 30.18,200.288 28.428,200.288 Z M40.5,200 L38.244,200 L38.244,182.408 L40.5,181.856 L40.5,200 Z M48.684,200.216 C46.788,200.216 45.156,199.304 45.156,197.072 L45.156,189.296 L43.164,189.296 L43.164,187.448 L45.156,187.448 L45.156,185.12 L47.388,184.76 L47.388,187.448 L50.676,187.448 L50.676,189.296 L47.388,189.296 L47.388,196.808 C47.388,197.936 48.108,198.344 49.212,198.344 C49.812,198.344 50.364,198.248 50.796,198.128 L50.916,198.2 L50.916,199.928 C50.34,200.144 49.596,200.216 48.684,200.216 Z M54.948,184.928 C54.012,184.928 53.58,184.472 53.58,183.608 C53.58,182.744 54.012,182.312 54.948,182.312 C55.884,182.312 56.292,182.744 56.292,183.608 C56.292,184.472 55.884,184.928 54.948,184.928 Z M53.82,200 L53.82,187.448 L56.076,187.448 L56.076,200 L53.82,200 Z M59.772,205.016 L59.772,187.448 L61.764,187.448 L61.932,188.888 C62.868,187.808 64.092,187.16 65.676,187.16 C69.06,187.16 71.148,189.56 71.148,193.544 C71.148,197.624 69.084,200.288 65.508,200.288 C64.116,200.288 62.964,199.784 62.052,198.848 L62.052,205.016 L59.772,205.016 Z M65.412,189.08 C63.9,189.08 62.916,189.584 62.052,190.472 L62.052,197.216 C62.94,198.008 63.9,198.392 65.316,198.392 C67.452,198.392 68.868,196.832 68.868,193.544 C68.868,190.352 67.38,189.08 65.412,189.08 Z M76.164,200 L73.908,200 L73.908,182.408 L76.164,181.856 L76.164,200 Z M85.476,200.288 C81.348,200.288 78.924,197.792 78.924,193.688 C78.924,189.776 81.372,187.16 84.78,187.16 C87.852,187.16 90.18,189.2 89.844,194.072 L81.132,194.072 C81.276,196.928 82.764,198.368 85.548,198.368 C86.988,198.368 88.26,198.128 89.412,197.6 L89.532,197.648 L89.532,199.568 C88.5,200.048 87.132,200.288 85.476,200.288 Z M84.756,189.056 C82.836,189.056 81.588,190.208 81.228,192.344 L87.588,192.344 C87.516,190.328 86.58,189.056 84.756,189.056 Z M102.324,200.288 C99.852,200.288 98.004,199.016 98.004,196.64 C98.004,194.024 100.14,193.208 103.116,192.776 L105.828,192.344 L105.828,192.224 C105.828,189.848 104.82,189.104 102.708,189.104 C101.364,189.104 100.332,189.32 99.06,189.848 L98.964,189.8 L98.964,187.928 C100.068,187.424 101.316,187.16 102.924,187.16 C106.14,187.16 108.084,188.528 108.084,192.056 L108.084,200 L106.14,200 L105.948,198.56 C105.3,199.472 104.196,200.288 102.324,200.288 Z M100.26,196.616 C100.26,197.72 101.028,198.44 102.588,198.44 C104.148,198.44 105.18,197.792 105.828,196.928 L105.828,194.048 L103.62,194.384 C101.196,194.768 100.26,195.272 100.26,196.616 Z M111.588,200 L111.588,187.448 L113.556,187.448 L113.772,189.176 C114.468,188.024 115.812,187.256 117.468,187.256 C117.852,187.256 118.164,187.28 118.5,187.328 L118.5,189.344 L118.38,189.416 C118.116,189.368 117.78,189.32 117.444,189.32 C115.74,189.32 114.636,189.776 113.844,190.928 L113.844,200 L111.588,200 Z M126.348,200.288 C122.22,200.288 119.796,197.792 119.796,193.688 C119.796,189.776 122.244,187.16 125.652,187.16 C128.724,187.16 131.052,189.2 130.716,194.072 L122.004,194.072 C122.148,196.928 123.636,198.368 126.42,198.368 C127.86,198.368 129.132,198.128 130.284,197.6 L130.404,197.648 L130.404,199.568 C129.372,200.048 128.004,200.288 126.348,200.288 Z M125.628,189.056 C123.708,189.056 122.46,190.208 122.1,192.344 L128.46,192.344 C128.388,190.328 127.452,189.056 125.628,189.056 Z M136.98,200.288 C134.508,200.288 132.66,199.016 132.66,196.64 C132.66,194.024 134.796,193.208 137.772,192.776 L140.484,192.344 L140.484,192.224 C140.484,189.848 139.476,189.104 137.364,189.104 C136.02,189.104 134.988,189.32 133.716,189.848 L133.62,189.8 L133.62,187.928 C134.724,187.424 135.972,187.16 137.58,187.16 C140.796,187.16 142.74,188.528 142.74,192.056 L142.74,200 L140.796,200 L140.604,198.56 C139.956,199.472 138.852,200.288 136.98,200.288 Z M134.916,196.616 C134.916,197.72 135.684,198.44 137.244,198.44 C138.804,198.44 139.836,197.792 140.484,196.928 L140.484,194.048 L138.276,194.384 C135.852,194.768 134.916,195.272 134.916,196.616 Z M149.652,200.24 C147.924,200.24 146.532,199.928 145.452,199.4 L145.452,197.288 L145.548,197.24 C146.772,198.008 148.116,198.392 149.628,198.392 C151.212,198.392 152.1,197.72 152.1,196.568 C152.1,195.488 151.524,195.056 150.012,194.648 L148.716,194.264 C146.748,193.712 145.524,192.608 145.524,190.736 C145.524,188.504 147.324,187.112 149.916,187.112 C151.308,187.112 152.508,187.352 153.492,187.688 L153.492,189.632 L153.396,189.68 C152.316,189.224 151.14,188.96 149.868,188.96 C148.284,188.96 147.732,189.656 147.732,190.544 C147.732,191.48 148.308,191.96 149.364,192.272 L150.684,192.632 C153.132,193.352 154.356,194.12 154.356,196.376 C154.356,198.992 152.124,200.24 149.652,200.24 Z M166.764,200.288 C164.292,200.288 162.444,199.016 162.444,196.64 C162.444,194.024 164.58,193.208 167.556,192.776 L170.268,192.344 L170.268,192.224 C170.268,189.848 169.26,189.104 167.148,189.104 C165.804,189.104 164.772,189.32 163.5,189.848 L163.404,189.8 L163.404,187.928 C164.508,187.424 165.756,187.16 167.364,187.16 C170.58,187.16 172.524,188.528 172.524,192.056 L172.524,200 L170.58,200 L170.388,198.56 C169.74,199.472 168.636,200.288 166.764,200.288 Z M164.7,196.616 C164.7,197.72 165.468,198.44 167.028,198.44 C168.588,198.44 169.62,197.792 170.268,196.928 L170.268,194.048 L168.06,194.384 C165.636,194.768 164.7,195.272 164.7,196.616 Z M176.028,200 L176.028,187.448 L177.996,187.448 L178.212,189.176 C178.908,188.024 180.252,187.256 181.908,187.256 C182.292,187.256 182.604,187.28 182.94,187.328 L182.94,189.344 L182.82,189.416 C182.556,189.368 182.22,189.32 181.884,189.32 C180.18,189.32 179.076,189.776 178.284,190.928 L178.284,200 L176.028,200 Z M190.788,200.288 C186.66,200.288 184.236,197.792 184.236,193.688 C184.236,189.776 186.684,187.16 190.092,187.16 C193.164,187.16 195.492,189.2 195.156,194.072 L186.444,194.072 C186.588,196.928 188.076,198.368 190.86,198.368 C192.3,198.368 193.572,198.128 194.724,197.6 L194.844,197.648 L194.844,199.568 C193.812,200.048 192.444,200.288 190.788,200.288 Z M190.068,189.056 C188.148,189.056 186.9,190.208 186.54,192.344 L192.9,192.344 C192.828,190.328 191.892,189.056 190.068,189.056 Z M1.524,212.928 C0.588,212.928 0.156,212.472 0.156,211.608 C0.156,210.744 0.588,210.312 1.524,210.312 C2.46,210.312 2.868,210.744 2.868,211.608 C2.868,212.472 2.46,212.928 1.524,212.928 Z M0.396,228 L0.396,215.448 L2.652,215.448 L2.652,228 L0.396,228 Z M6.348,228 L6.348,215.448 L8.316,215.448 L8.508,216.72 C9.492,215.88 10.716,215.16 12.444,215.16 C15.012,215.16 16.524,216.576 16.524,219.24 L16.524,228 L14.268,228 L14.268,219.672 C14.268,217.56 13.164,217.032 11.82,217.032 C10.548,217.032 9.588,217.392 8.604,218.088 L8.604,228 L6.348,228 Z M25.812,228.288 C21.588,228.288 19.188,225.696 19.188,221.712 C19.188,217.656 21.756,215.16 25.692,215.16 C26.868,215.16 27.924,215.328 28.812,215.592 L28.812,217.536 L28.716,217.608 C27.684,217.224 26.82,217.08 25.812,217.08 C23.1,217.08 21.468,218.688 21.468,221.712 C21.468,224.64 22.86,226.392 25.908,226.392 C27.06,226.392 28.044,226.2 29.028,225.696 L29.124,225.744 L29.124,227.64 C28.236,228.096 27.108,228.288 25.812,228.288 Z M34.188,228 L31.932,228 L31.932,210.408 L34.188,209.856 L34.188,228 Z M41.844,228.288 C39.276,228.288 37.644,226.872 37.644,224.232 L37.644,215.448 L39.9,215.448 L39.9,223.776 C39.9,225.888 41.124,226.416 42.468,226.416 C43.764,226.416 44.796,226.08 45.804,225.384 L45.804,215.448 L48.06,215.448 L48.06,228 L46.092,228 L45.9,226.728 C44.892,227.568 43.596,228.288 41.844,228.288 Z M60.42,228 L60.156,226.392 C59.22,227.592 57.948,228.288 56.268,228.288 C52.908,228.288 50.82,225.912 50.82,221.904 C50.82,217.824 52.884,215.16 56.46,215.16 C57.852,215.16 59.004,215.688 59.916,216.624 L59.916,210.408 L62.172,209.856 L62.172,228 L60.42,228 Z M53.076,221.904 C53.076,225.096 54.588,226.392 56.556,226.392 C58.068,226.392 59.052,225.864 59.916,224.976 L59.916,218.256 C59.028,217.464 58.068,217.056 56.652,217.056 C54.516,217.056 53.076,218.616 53.076,221.904 Z M71.484,228.288 C67.356,228.288 64.932,225.792 64.932,221.688 C64.932,217.776 67.38,215.16 70.788,215.16 C73.86,215.16 76.188,217.2 75.852,222.072 L67.14,222.072 C67.284,224.928 68.772,226.368 71.556,226.368 C72.996,226.368 74.268,226.128 75.42,225.6 L75.54,225.648 L75.54,227.568 C74.508,228.048 73.14,228.288 71.484,228.288 Z M70.764,217.056 C68.844,217.056 67.596,218.208 67.236,220.344 L73.596,220.344 C73.524,218.328 72.588,217.056 70.764,217.056 Z M87.42,228 L87.156,226.392 C86.22,227.592 84.948,228.288 83.268,228.288 C79.908,228.288 77.82,225.912 77.82,221.904 C77.82,217.824 79.884,215.16 83.46,215.16 C84.852,215.16 86.004,215.688 86.916,216.624 L86.916,210.408 L89.172,209.856 L89.172,228 L87.42,228 Z M80.076,221.904 C80.076,225.096 81.588,226.392 83.556,226.392 C85.068,226.392 86.052,225.864 86.916,224.976 L86.916,218.256 C86.028,217.464 85.068,217.056 83.652,217.056 C81.516,217.056 80.076,218.616 80.076,221.904 Z M100.212,212.928 C99.276,212.928 98.844,212.472 98.844,211.608 C98.844,210.744 99.276,210.312 100.212,210.312 C101.148,210.312 101.556,210.744 101.556,211.608 C101.556,212.472 101.148,212.928 100.212,212.928 Z M99.084,228 L99.084,215.448 L101.34,215.448 L101.34,228 L99.084,228 Z M105.036,228 L105.036,215.448 L107.004,215.448 L107.196,216.72 C108.18,215.88 109.404,215.16 111.132,215.16 C113.7,215.16 115.212,216.576 115.212,219.24 L115.212,228 L112.956,228 L112.956,219.672 C112.956,217.56 111.852,217.032 110.508,217.032 C109.236,217.032 108.276,217.392 107.292,218.088 L107.292,228 L105.036,228 Z M129.516,228.216 C127.62,228.216 125.988,227.304 125.988,225.072 L125.988,217.296 L123.996,217.296 L123.996,215.448 L125.988,215.448 L125.988,213.12 L128.22,212.76 L128.22,215.448 L131.508,215.448 L131.508,217.296 L128.22,217.296 L128.22,224.808 C128.22,225.936 128.94,226.344 130.044,226.344 C130.644,226.344 131.196,226.248 131.628,226.128 L131.748,226.2 L131.748,227.928 C131.172,228.144 130.428,228.216 129.516,228.216 Z M134.556,228 L134.556,210.408 L136.812,209.856 L136.812,216.648 C137.796,215.832 138.996,215.16 140.676,215.16 C143.22,215.16 144.732,216.576 144.732,219.24 L144.732,228 L142.476,228 L142.476,219.672 C142.476,217.56 141.372,217.032 140.028,217.032 C138.756,217.032 137.796,217.392 136.812,218.088 L136.812,228 L134.556,228 Z M153.948,228.288 C149.82,228.288 147.396,225.792 147.396,221.688 C147.396,217.776 149.844,215.16 153.252,215.16 C156.324,215.16 158.652,217.2 158.316,222.072 L149.604,222.072 C149.748,224.928 151.236,226.368 154.02,226.368 C155.46,226.368 156.732,226.128 157.884,225.6 L158.004,225.648 L158.004,227.568 C156.972,228.048 155.604,228.288 153.948,228.288 Z M153.228,217.056 C151.308,217.056 150.06,218.208 149.7,220.344 L156.06,220.344 C155.988,218.328 155.052,217.056 153.228,217.056 Z M168.276,228 L168.276,217.296 L166.308,217.296 L166.308,215.448 L168.276,215.448 L168.276,214.224 C168.276,210.504 170.82,209.736 172.98,209.736 C173.724,209.736 174.204,209.808 174.42,209.856 L174.42,211.608 C174.228,211.584 173.892,211.56 173.124,211.56 C171.804,211.56 170.532,212.064 170.532,214.32 L170.532,215.448 L173.916,215.448 L173.916,217.296 L170.532,217.296 L170.532,228 L168.276,228 Z M177.732,212.928 C176.796,212.928 176.364,212.472 176.364,211.608 C176.364,210.744 176.796,210.312 177.732,210.312 C178.668,210.312 179.076,210.744 179.076,211.608 C179.076,212.472 178.668,212.928 177.732,212.928 Z M176.604,228 L176.604,215.448 L178.86,215.448 L178.86,228 L176.604,228 Z M184.812,228 L182.556,228 L182.556,210.408 L184.812,209.856 L184.812,228 Z M194.124,228.288 C189.996,228.288 187.572,225.792 187.572,221.688 C187.572,217.776 190.02,215.16 193.428,215.16 C196.5,215.16 198.828,217.2 198.492,222.072 L189.78,222.072 C189.924,224.928 191.412,226.368 194.196,226.368 C195.636,226.368 196.908,226.128 198.06,225.6 L198.18,225.648 L198.18,227.568 C197.148,228.048 195.78,228.288 194.124,228.288 Z M193.404,217.056 C191.484,217.056 190.236,218.208 189.876,220.344 L196.236,220.344 C196.164,218.328 195.228,217.056 193.404,217.056 Z" id="Needed-only-if-multi" fill="#5B636A"></path>
            <g id="Straight-/-Flat" transform="translate(99.000000, 99.000000) rotate(-270.000000) translate(-99.000000, -99.000000) translate(59.000000, 91.000000)">
                <path d="M6,8 L69,8" id="horiz" stroke="#26282A" stroke-width="4"></path>
                <g id="Point-/-Arrow" transform="translate(56.000000, -4.000000)" fill="#26282A" fill-rule="evenodd">
                    <path d="M11.7338228,10.6764629 L15.2517488,16.7696895 C15.8040335,17.7262747 15.4762832,18.9494556 14.519698,19.5017403 C14.2130304,19.6787949 13.8648524,19.7712543 13.5107467,19.7696695 L6.52901804,19.7384213 C5.4244596,19.7334776 4.53304571,18.8340485 4.53798938,17.72949 C4.5395335,17.3844894 4.63029715,17.0457548 4.80146023,16.7462034 L8.26526287,10.684225 C8.81326074,9.7251775 10.0349624,9.39195594 10.9940099,9.93995381 C11.3014669,10.1156341 11.5567682,10.3697953 11.7338228,10.6764629 Z" id="point" transform="translate(10.046633, 13.723076) rotate(-150.000000) translate(-10.046633, -13.723076) "></path>
                </g>
            </g>
            <path d="M996.856,38.624 C992.344,38.624 988.984,37.952 986.632,36.8 L986.632,29.264 L986.92,29.12 C989.56,30.608 992.68,31.568 996.328,31.568 C999.496,31.568 1001.032,30.32 1001.032,28.352 C1001.032,26.528 999.88,26 996.712,24.944 L994.408,24.272 C989.272,22.688 986.44,19.52 986.44,14.192 C986.44,7.424 991.192,3.536 998.536,3.536 C1002.04,3.536 1005.208,4.016 1007.608,4.784 L1007.608,12.032 L1007.32,12.176 C1004.728,11.072 1001.944,10.544 998.872,10.544 C996.04,10.544 994.696,11.696 994.696,13.28 C994.696,14.864 995.56,15.728 998.248,16.592 L1000.456,17.264 C1007.08,19.136 1009.768,21.824 1009.768,27.584 C1009.768,34.64 1005.016,38.624 996.856,38.624 Z M1024.264,38.528 C1019.416,38.528 1015.384,37.04 1015.384,31.52 L1015.384,17.456 L1011.688,17.456 L1011.688,11.6 L1015.384,11.6 L1015.384,7.376 L1023.64,6.08 L1023.64,11.6 L1029.592,11.6 L1029.592,17.456 L1023.64,17.456 L1023.64,29.936 C1023.64,31.712 1024.648,32.336 1026.808,32.336 C1027.816,32.336 1028.776,32.24 1029.4,32.096 L1029.688,32.24 L1029.688,38 C1028.344,38.384 1026.424,38.528 1024.264,38.528 Z M1040.824,38.624 C1035.928,38.624 1032.232,35.984 1032.232,30.752 C1032.232,25.232 1036.12,23.216 1042.6,22.352 L1047.496,21.728 C1047.496,18.368 1046.008,17.312 1042.504,17.312 C1039.144,17.312 1036.744,18.08 1034.632,18.896 L1034.296,18.8 L1034.296,12.608 C1036.504,11.696 1039.768,10.976 1043.8,10.976 C1051.576,10.976 1055.704,13.952 1055.704,21.728 L1055.704,38 L1048.6,38 L1048.072,35.072 C1046.728,36.944 1044.616,38.624 1040.824,38.624 Z M1040.2,30.224 C1040.2,32 1041.208,33.2 1043.512,33.2 C1045.336,33.2 1046.632,32.432 1047.496,31.28 L1047.496,26.576 L1044.376,27.008 C1041.448,27.44 1040.2,28.304 1040.2,30.224 Z M1071.496,38.528 C1066.648,38.528 1062.616,37.04 1062.616,31.52 L1062.616,17.456 L1058.92,17.456 L1058.92,11.6 L1062.616,11.6 L1062.616,7.376 L1070.872,6.08 L1070.872,11.6 L1076.824,11.6 L1076.824,17.456 L1070.872,17.456 L1070.872,29.936 C1070.872,31.712 1071.88,32.336 1074.04,32.336 C1075.048,32.336 1076.008,32.24 1076.632,32.096 L1076.92,32.24 L1076.92,38 C1075.576,38.384 1073.656,38.528 1071.496,38.528 Z M1089.4,38.624 C1084.168,38.624 1080.52,35.648 1080.52,29.36 L1080.52,11.6 L1088.776,11.6 L1088.776,28.016 C1088.776,30.992 1090.312,32.096 1092.616,32.096 C1094.296,32.096 1095.736,31.664 1097.032,30.656 L1097.032,11.6 L1105.288,11.6 L1105.288,38 L1098.04,38 L1097.512,34.784 C1095.688,36.848 1093.192,38.624 1089.4,38.624 Z M1118.056,38.576 C1113.976,38.576 1111.192,37.952 1108.888,36.896 L1108.888,30.752 L1109.176,30.608 C1111.432,31.904 1114.504,32.672 1117.432,32.672 C1120.024,32.672 1121.224,31.808 1121.224,30.416 C1121.224,29.168 1120.504,28.784 1118.152,28.208 L1115.8,27.632 C1111.624,26.624 1108.792,24.224 1108.792,19.568 C1108.792,14.336 1112.68,10.928 1119.112,10.928 C1122.472,10.928 1125.112,11.36 1127.224,12.032 L1127.224,17.984 L1126.936,18.128 C1125.016,17.36 1122.328,16.736 1119.352,16.736 C1116.856,16.736 1116.088,17.504 1116.088,18.752 C1116.088,19.952 1116.808,20.48 1118.584,20.912 L1120.936,21.488 C1126.312,22.832 1128.904,24.608 1128.904,29.456 C1128.904,35.216 1124.776,38.576 1118.056,38.576 Z" id="Status" fill="#26282A"></path>
            <polygon id="+" fill="#FF520D" points="941.468 19.568 949.58 19.568 949.58 10.64 953.42 10.64 953.42 19.568 961.532 19.568 961.532 23.216 953.42 23.216 953.42 32.144 949.58 32.144 949.58 23.216 941.468 23.216"></polygon>
            <path d="M729.656,46.16 C724.664,40.016 721.496,32.768 721.496,23.456 C721.496,14.144 724.664,6.992 729.656,0.848 L734.12,0.848 C729.656,6.896 726.2,13.712 726.2,23.456 C726.2,33.2 729.656,40.112 734.12,46.16 L729.656,46.16 Z M751.208,48.032 L751.208,12.896 L755.192,12.896 L755.528,15.776 C757.4,13.616 759.848,12.32 763.016,12.32 C769.784,12.32 773.96,17.12 773.96,25.088 C773.96,33.248 769.832,38.576 762.68,38.576 C759.896,38.576 757.592,37.568 755.768,35.696 L755.768,48.032 L751.208,48.032 Z M762.488,16.16 C759.464,16.16 757.496,17.168 755.768,18.944 L755.768,32.432 C757.544,34.016 759.464,34.784 762.296,34.784 C766.568,34.784 769.4,31.664 769.4,25.088 C769.4,18.704 766.424,16.16 762.488,16.16 Z M790.904,38.576 C782.648,38.576 777.8,33.584 777.8,25.376 C777.8,17.552 782.696,12.32 789.512,12.32 C795.656,12.32 800.312,16.4 799.64,26.144 L782.216,26.144 C782.504,31.856 785.48,34.736 791.048,34.736 C793.928,34.736 796.472,34.256 798.776,33.2 L799.016,33.296 L799.016,37.136 C796.952,38.096 794.216,38.576 790.904,38.576 Z M789.464,16.112 C785.624,16.112 783.128,18.416 782.408,22.688 L795.128,22.688 C794.984,18.656 793.112,16.112 789.464,16.112 Z M805.256,38 L805.256,12.896 L809.192,12.896 L809.624,16.352 C811.016,14.048 813.704,12.512 817.016,12.512 C817.784,12.512 818.408,12.56 819.08,12.656 L819.08,16.688 L818.84,16.832 C818.312,16.736 817.64,16.64 816.968,16.64 C813.56,16.64 811.352,17.552 809.768,19.856 L809.768,38 L805.256,38 Z M826.472,7.856 C824.6,7.856 823.736,6.944 823.736,5.216 C823.736,3.488 824.6,2.624 826.472,2.624 C828.344,2.624 829.16,3.488 829.16,5.216 C829.16,6.944 828.344,7.856 826.472,7.856 Z M824.216,38 L824.216,12.896 L828.728,12.896 L828.728,38 L824.216,38 Z M846.632,38.576 C839.432,38.576 834.44,33.344 834.44,25.424 C834.44,17.456 839.432,12.32 846.632,12.32 C853.736,12.32 858.824,17.456 858.824,25.424 C858.824,33.344 853.736,38.576 846.632,38.576 Z M846.632,34.784 C851.336,34.784 854.312,31.28 854.312,25.424 C854.312,19.664 851.336,16.112 846.632,16.112 C841.832,16.112 838.952,19.664 838.952,25.424 C838.952,31.28 841.832,34.784 846.632,34.784 Z M881.864,38 L881.336,34.784 C879.464,37.184 876.92,38.576 873.56,38.576 C866.84,38.576 862.664,33.824 862.664,25.808 C862.664,17.648 866.792,12.32 873.944,12.32 C876.728,12.32 879.032,13.376 880.856,15.248 L880.856,2.816 L885.368,1.712 L885.368,38 L881.864,38 Z M867.176,25.808 C867.176,32.192 870.2,34.784 874.136,34.784 C877.16,34.784 879.128,33.728 880.856,31.952 L880.856,18.512 C879.08,16.928 877.16,16.112 874.328,16.112 C870.056,16.112 867.176,19.232 867.176,25.808 Z M902.504,46.16 C906.968,40.112 910.376,33.2 910.376,23.456 C910.376,13.712 906.968,6.896 902.504,0.848 L906.92,0.848 C911.912,6.992 915.08,14.144 915.08,23.456 C915.08,32.768 911.912,40.016 906.92,46.16 L902.504,46.16 Z" id="(-period-)" fill="#26282A"></path>
            <polygon id="+" fill="#FF520D" points="675.468 19.568 683.58 19.568 683.58 10.64 687.42 10.64 687.42 19.568 695.532 19.568 695.532 23.216 687.42 23.216 687.42 32.144 683.58 32.144 683.58 23.216 675.468 23.216"></polygon>
            <path d="M489.08,38 L479.432,11.984 L479.432,11.6 L488.12,11.6 L493.736,29.072 L499.256,11.6 L506.984,11.6 L506.984,11.936 L497.576,38 L489.08,38 Z M522.152,38.624 C511.832,38.624 507.32,33.296 507.32,24.56 C507.32,16.592 512.408,10.976 520.136,10.976 C527.768,10.976 532.568,15.824 531.656,27.056 L515.432,27.056 C516.008,30.848 518.12,32.432 522.68,32.432 C526.04,32.432 528.536,32 530.792,31.088 L531.128,31.232 L531.128,37.28 C529.256,38.096 526.136,38.624 522.152,38.624 Z M520.184,16.544 C517.496,16.544 515.912,18.176 515.432,21.872 L524.12,21.872 C523.976,18.368 522.872,16.544 520.184,16.544 Z M535.256,38 L535.256,11.6 L542.504,11.6 L543.08,16.112 C544.52,13.664 547.304,11.168 551.096,11.168 C551.912,11.168 552.776,11.216 553.256,11.36 L553.256,19.088 L552.968,19.28 C552.344,19.184 551.48,19.088 550.616,19.088 C547.544,19.088 545.192,19.664 543.512,21.296 L543.512,38 L535.256,38 Z M564.824,38.576 C560.744,38.576 557.96,37.952 555.656,36.896 L555.656,30.752 L555.944,30.608 C558.2,31.904 561.272,32.672 564.2,32.672 C566.792,32.672 567.992,31.808 567.992,30.416 C567.992,29.168 567.272,28.784 564.92,28.208 L562.568,27.632 C558.392,26.624 555.56,24.224 555.56,19.568 C555.56,14.336 559.448,10.928 565.88,10.928 C569.24,10.928 571.88,11.36 573.992,12.032 L573.992,17.984 L573.704,18.128 C571.784,17.36 569.096,16.736 566.12,16.736 C563.624,16.736 562.856,17.504 562.856,18.752 C562.856,19.952 563.576,20.48 565.352,20.912 L567.704,21.488 C573.08,22.832 575.672,24.608 575.672,29.456 C575.672,35.216 571.544,38.576 564.824,38.576 Z M583.304,9.536 C580.472,9.536 578.888,8.144 578.888,5.456 C578.888,2.768 580.472,1.424 583.304,1.424 C586.136,1.424 587.672,2.768 587.672,5.456 C587.672,8.144 586.136,9.536 583.304,9.536 Z M579.176,38 L579.176,11.6 L587.432,11.6 L587.432,38 L579.176,38 Z M604.328,38.624 C596.552,38.624 590.984,33.344 590.984,24.752 C590.984,16.16 596.552,10.976 604.328,10.976 C612.104,10.976 617.72,16.16 617.72,24.752 C617.72,33.344 612.104,38.624 604.328,38.624 Z M604.328,32.624 C607.496,32.624 609.32,30.08 609.32,24.8 C609.32,19.52 607.496,16.976 604.328,16.976 C601.208,16.976 599.384,19.52 599.384,24.8 C599.384,30.08 601.208,32.624 604.328,32.624 Z M621.176,38 L621.176,11.6 L628.424,11.6 L628.952,15.056 C630.776,12.992 633.176,10.976 637.256,10.976 C642.152,10.976 645.752,13.76 645.752,20.24 L645.752,38 L637.448,38 L637.448,21.584 C637.448,18.608 635.912,17.504 633.704,17.504 C632.024,17.504 630.68,18.032 629.432,19.04 L629.432,38 L621.176,38 Z" id="version" fill="#26282A"></path>
            <polygon id="+" fill="#FF520D" points="435.468 19.568 443.58 19.568 443.58 10.64 447.42 10.64 447.42 19.568 455.532 19.568 455.532 23.216 447.42 23.216 447.42 32.144 443.58 32.144 443.58 23.216 435.468 23.216"></polygon>
            <path d="M262.656,46.16 C257.664,40.016 254.496,32.768 254.496,23.456 C254.496,14.144 257.664,6.992 262.656,0.848 L267.12,0.848 C262.656,6.896 259.2,13.712 259.2,23.456 C259.2,33.2 262.656,40.112 267.12,46.16 L262.656,46.16 Z M301.728,38 L301.2,34.784 C299.328,37.184 296.784,38.576 293.424,38.576 C286.704,38.576 282.528,33.824 282.528,25.808 C282.528,17.648 286.656,12.32 293.808,12.32 C296.592,12.32 298.896,13.376 300.72,15.248 L300.72,2.816 L305.232,1.712 L305.232,38 L301.728,38 Z M287.04,25.808 C287.04,32.192 290.064,34.784 294,34.784 C297.024,34.784 298.992,33.728 300.72,31.952 L300.72,18.512 C298.944,16.928 297.024,16.112 294.192,16.112 C289.92,16.112 287.04,19.232 287.04,25.808 Z M319.344,38.576 C314.4,38.576 310.704,36.032 310.704,31.28 C310.704,26.048 314.976,24.416 320.928,23.552 L326.352,22.688 L326.352,22.448 C326.352,17.696 324.336,16.208 320.112,16.208 C317.424,16.208 315.36,16.64 312.816,17.696 L312.624,17.6 L312.624,13.856 C314.832,12.848 317.328,12.32 320.544,12.32 C326.976,12.32 330.864,15.056 330.864,22.112 L330.864,38 L326.976,38 L326.592,35.12 C325.296,36.944 323.088,38.576 319.344,38.576 Z M315.216,31.232 C315.216,33.44 316.752,34.88 319.872,34.88 C322.992,34.88 325.056,33.584 326.352,31.856 L326.352,26.096 L321.936,26.768 C317.088,27.536 315.216,28.544 315.216,31.232 Z M344.688,38.48 C341.232,38.48 338.448,37.856 336.288,36.8 L336.288,32.576 L336.48,32.48 C338.928,34.016 341.616,34.784 344.64,34.784 C347.808,34.784 349.584,33.44 349.584,31.136 C349.584,28.976 348.432,28.112 345.408,27.296 L342.816,26.528 C338.88,25.424 336.432,23.216 336.432,19.472 C336.432,15.008 340.032,12.224 345.216,12.224 C348,12.224 350.4,12.704 352.368,13.376 L352.368,17.264 L352.176,17.36 C350.016,16.448 347.664,15.92 345.12,15.92 C341.952,15.92 340.848,17.312 340.848,19.088 C340.848,20.96 342,21.92 344.112,22.544 L346.752,23.264 C351.648,24.704 354.096,26.24 354.096,30.752 C354.096,35.984 349.632,38.48 344.688,38.48 Z M359.568,38 L359.568,2.816 L364.08,1.712 L364.08,15.296 C366.048,13.664 368.448,12.32 371.808,12.32 C376.896,12.32 379.92,15.152 379.92,20.48 L379.92,38 L375.408,38 L375.408,21.344 C375.408,17.12 373.2,16.064 370.512,16.064 C367.968,16.064 366.048,16.784 364.08,18.176 L364.08,38 L359.568,38 Z M396.864,46.16 C401.328,40.112 404.736,33.2 404.736,23.456 C404.736,13.712 401.328,6.896 396.864,0.848 L401.28,0.848 C406.272,6.992 409.44,14.144 409.44,23.456 C409.44,32.768 406.272,40.016 401.28,46.16 L396.864,46.16 Z" id="(-dash-)" fill="#26282A"></path>
            <polygon id="+" fill="#FF520D" points="208.468 19.568 216.58 19.568 216.58 10.64 220.42 10.64 220.42 19.568 228.532 19.568 228.532 23.216 220.42 23.216 220.42 32.144 216.58 32.144 216.58 23.216 208.468 23.216"></polygon>
            <path d="M27.856,38.624 C23.344,38.624 19.984,37.952 17.632,36.8 L17.632,29.264 L17.92,29.12 C20.56,30.608 23.68,31.568 27.328,31.568 C30.496,31.568 32.032,30.32 32.032,28.352 C32.032,26.528 30.88,26 27.712,24.944 L25.408,24.272 C20.272,22.688 17.44,19.52 17.44,14.192 C17.44,7.424 22.192,3.536 29.536,3.536 C33.04,3.536 36.208,4.016 38.608,4.784 L38.608,12.032 L38.32,12.176 C35.728,11.072 32.944,10.544 29.872,10.544 C27.04,10.544 25.696,11.696 25.696,13.28 C25.696,14.864 26.56,15.728 29.248,16.592 L31.456,17.264 C38.08,19.136 40.768,21.824 40.768,27.584 C40.768,34.64 36.016,38.624 27.856,38.624 Z M58.336,38.624 C48.016,38.624 43.504,33.296 43.504,24.56 C43.504,16.592 48.592,10.976 56.32,10.976 C63.952,10.976 68.752,15.824 67.84,27.056 L51.616,27.056 C52.192,30.848 54.304,32.432 58.864,32.432 C62.224,32.432 64.72,32 66.976,31.088 L67.312,31.232 L67.312,37.28 C65.44,38.096 62.32,38.624 58.336,38.624 Z M56.368,16.544 C53.68,16.544 52.096,18.176 51.616,21.872 L60.304,21.872 C60.16,18.368 59.056,16.544 56.368,16.544 Z M84.784,38.624 C75.664,38.624 70.192,33.632 70.192,24.752 C70.192,15.728 76.192,10.976 84.64,10.976 C87.232,10.976 89.296,11.264 90.832,11.696 L90.832,17.792 L90.496,17.936 C88.96,17.36 87.616,17.12 85.6,17.12 C81.568,17.12 78.688,19.52 78.688,24.752 C78.688,30.032 81.376,32.576 85.792,32.576 C87.952,32.576 89.584,32.192 91.024,31.52 L91.408,31.664 L91.408,37.424 C89.92,38.192 87.664,38.624 84.784,38.624 Z M106.336,38.528 C101.488,38.528 97.456,37.04 97.456,31.52 L97.456,17.456 L93.76,17.456 L93.76,11.6 L97.456,11.6 L97.456,7.376 L105.712,6.08 L105.712,11.6 L111.664,11.6 L111.664,17.456 L105.712,17.456 L105.712,29.936 C105.712,31.712 106.72,32.336 108.88,32.336 C109.888,32.336 110.848,32.24 111.472,32.096 L111.76,32.24 L111.76,38 C110.416,38.384 108.496,38.528 106.336,38.528 Z M119.776,9.536 C116.944,9.536 115.36,8.144 115.36,5.456 C115.36,2.768 116.944,1.424 119.776,1.424 C122.608,1.424 124.144,2.768 124.144,5.456 C124.144,8.144 122.608,9.536 119.776,9.536 Z M115.648,38 L115.648,11.6 L123.904,11.6 L123.904,38 L115.648,38 Z M140.8,38.624 C133.024,38.624 127.456,33.344 127.456,24.752 C127.456,16.16 133.024,10.976 140.8,10.976 C148.576,10.976 154.192,16.16 154.192,24.752 C154.192,33.344 148.576,38.624 140.8,38.624 Z M140.8,32.624 C143.968,32.624 145.792,30.08 145.792,24.8 C145.792,19.52 143.968,16.976 140.8,16.976 C137.68,16.976 135.856,19.52 135.856,24.8 C135.856,30.08 137.68,32.624 140.8,32.624 Z M157.648,38 L157.648,11.6 L164.896,11.6 L165.424,15.056 C167.248,12.992 169.648,10.976 173.728,10.976 C178.624,10.976 182.224,13.76 182.224,20.24 L182.224,38 L173.92,38 L173.92,21.584 C173.92,18.608 172.384,17.504 170.176,17.504 C168.496,17.504 167.152,18.032 165.904,19.04 L165.904,38 L157.648,38 Z" id="Section" fill="#26282A"></path>
        </g>
    </g>
</svg>